<svg width="218" height="114" viewBox="0 0 218 114" fill="none" xmlns="http://www.w3.org/2000/svg">
<path d="M212.322 108.885C215.328 108.885 217.78 106.446 217.63 103.443C216.936 89.571 213.593 75.9426 207.764 63.2991C201.935 50.6555 193.743 39.2627 183.646 29.726C181.46 27.6614 178.013 27.9416 176.06 30.228C174.108 32.5144 174.39 35.9401 176.564 38.0168C185.471 46.5229 192.706 56.6437 197.876 67.8576C203.045 79.0716 206.042 91.1464 206.726 103.443C206.893 106.445 209.315 108.885 212.322 108.885Z" fill="#262626"/>
<path d="M173.978 28.4964C175.871 26.1597 175.518 22.7194 173.09 20.9463C157.687 9.69989 139.571 2.67669 120.546 0.626717C99.7138 -1.61802 78.6761 2.1957 59.9573 11.6103C41.2385 21.0249 25.6336 35.6405 15.0149 53.7035C5.3175 70.1992 0.154769 88.9303 0.000173182 108.001C-0.0242 111.008 2.52746 113.342 5.53159 113.216C8.53572 113.09 10.8531 110.552 10.8942 107.545C11.1261 90.5695 15.7662 73.9108 24.4015 59.2216C33.9584 42.9649 48.0028 29.8109 64.8497 21.3377C81.6966 12.8646 100.631 9.43226 119.38 11.4525C136.321 13.278 152.462 19.4852 166.228 29.4204C168.666 31.1799 172.086 30.8331 173.978 28.4964Z" fill="#A3E635"/>
</svg>
